<?xml version="1.0" encoding="UTF-8"?>
<svg id="Layer_2" xmlns="http://www.w3.org/2000/svg" width="200" height="200" xmlns:xlink="http://www.w3.org/1999/xlink" viewBox="0 0 200 200" fill="#F2766C">
    <defs>
        <clipPath id="clippath">
            <circle id="mask" cx="100" cy="100" r="100" fill="none"/>
        </clipPath>
    </defs>
    <g id="logo_geometric_3_FINAL_parts">
        <g clip-path="url(#clippath)">
            <path id="bg-fill" d="M100,0C54.6,0,16.28,30.25,4.07,71.7c2.93-.99,6.15-1.57,9.72-1.57,7.58,0,18.05,2.95,24.87,16.98,3.89,8,5.95,18.12,7.95,27.91,5.04,24.7,8.93,35.02,20.06,35.02s23.02-12.03,23.88-45.42h-20.08v-12h20.33c1.03-22.38,6.45-38.9,16.17-49.13,5.09-5.36,14.08-11.76,28-11.76,15,0,32.55,10.48,35.63,33.48l-19.82,2.65c-1.59-11.91-9.51-16.13-15.8-16.13-17.75,0-23.14,20.68-24.16,40.89h26.04v12h-26.29c-.49,21.45-5.09,38.09-13.68,49.49-7.63,10.13-18.64,15.94-30.21,15.94-29.25,0-35.26-29.49-39.65-51.03-1.83-8.97-3.55-17.44-6.34-23.16-2.79-5.73-5.16-5.73-6.89-5.73-7.59,0-11.8,9.18-13.61,15.83,3.09,52.45,46.59,94.04,99.82,94.04s100-44.77,100-100S155.23,0,100,0Z"/>
            <path id="f-shape-fill" d="M134.97,31.74c-13.92,0-22.91,6.39-28,11.76-9.72,10.23-15.14,26.75-16.17,49.13h-20.33v12h20.08c-.86,33.39-12.74,45.42-23.88,45.42s-15.02-10.32-20.06-35.02c-2-9.79-4.06-19.92-7.95-27.91-6.83-14.04-17.29-16.98-24.87-16.98-26.46,0-34.68,30.73-34.68,41.92H-.89c0-3.72,4-21.92,14.68-21.92,1.73,0,4.1,0,6.89,5.73,2.78,5.72,4.51,14.19,6.34,23.16,4.39,21.54,10.4,51.03,39.65,51.03,11.56,0,22.57-5.81,30.21-15.94,8.59-11.4,13.18-28.04,13.68-49.49h26.29v-12h-26.04c1.03-20.2,6.42-40.89,24.16-40.89,6.29,0,14.21,4.22,15.8,16.13l19.82-2.65c-3.08-23-20.62-33.48-35.63-33.48Z" fill="none"/>
            <g id="f-shape-paths" opacity="0">
                <path id="f-curve" d="M-10.89,112.05c0-7.15,5.79-31.92,24.68-31.92,32.68,0,12.77,79.92,52.88,79.92,14.01,0,33.93-12.1,33.93-59.35,0-55.57,24.85-58.97,34.36-58.97,10.4,0,23.33,6.99,25.72,24.8" fill="none" opacity="0" stroke="#fff" stroke-miterlimit="10" stroke-width="20"/>
                <line id="cross-line" x1="70.47" y1="98.63" x2="136.84" y2="98.63" fill="none" opacity="0" stroke="#fff" stroke-miterlimit="10" stroke-width="12"/>
            </g>
        </g>
    </g>
</svg>