<?xml version="1.0" encoding="UTF-8"?>
<svg id="home-hero-paths" xmlns="http://www.w3.org/2000/svg" width="396.3" height="160" version="1.1" viewBox="0 0 396.3 160">
  <!-- Generator: Adobe Illustrator 29.7.1, SVG Export Plug-In . SVG Version: 2.1.1 Build 8)  -->
  <rect id="bg-rect" x="-2.4" width="410.4" height="160" fill="none"/>
  <path id="wave-blue" d="M-3.1,138C13.9,96.7,65.4,14.2,135.5,14.2s44.1,123.7,126.8,123.7S382.2,55.5,400.9,14.2" fill="none" stroke="#15b5d9" stroke-linecap="round" stroke-width="4"/>
  <path id="wave-yellow" d="M-3.1,94.9c11.2-24.9,19.5-37.6,43.7-37.6s42.8,91.7,84.7,91.7c62.8,0,101.9-108.8,143.8-104.6,40,0,.5,104.6,41.9,104.6s33-66.4,59.6-66.4,27.8,24,28.4,36" fill="none" stroke="#f3cd14" stroke-linecap="round" stroke-width="4"/>
  <path id="wave-pink" d="M399,82.6c-11.3,37.5-19.8,56.5-44.2,56.5S311.4,1.3,269.1,1.3c-63.5,0-103.1,163.6-145.5,157.2-40.5,0-.5-157.2-42.4-157.2S47.8,101.1,21,101.1-7.1,65.1-7.7,47.1" fill="none" stroke="#f2766c" stroke-linecap="round" stroke-width="4"/>
</svg>