<?xml version="1.0" encoding="UTF-8"?><svg id="home-hero-paths" xmlns="http://www.w3.org/2000/svg" width="441" height="247" viewBox="0 0 441 247"><rect id="bg-rect" x="7.74" width="411.26" height="247" fill="none"/><path id="wave-blue" d="M7,213C24.34,149.33,76.89,22,148.32,22c89.29,0,45,191,129.37,191,67.49,0,122.33-127.33,141.32-191" fill="none" stroke="#15b5d9" stroke-linecap="round" stroke-width="4"/><path id="wave-yellow" d="M7,146.5c12-38.5,21-58,47-58s46,141.5,91,141.5c67.49,0,109.5-168,154.5-161.5,43,0,.5,161.5,45,161.5s35.5-102.5,64-102.5c22.8,0,29.83,37,30.5,55.5" fill="none" stroke="#f3cd14" stroke-linecap="round" stroke-width="4"/><path id="wave-pink" d="M439,127.5c-12.14,57.86-21.24,87.17-47.54,87.17S344.92,2,299.4,2c-68.28,0-110.77,252.49-156.29,242.72-43.5,0-.51-242.72-45.52-242.72S61.68,156.05,32.85,156.05c-23.06,0-30.18-55.61-30.85-83.41" fill="none" stroke="#f2766c" stroke-linecap="round" stroke-width="4"/><g id="arrow"><line x1="7.74" y1="144.14" x2="336.74" y2="144.14" fill="#0d0b1e" stroke="#000" stroke-miterlimit="10" stroke-width="4"/><polygon points="351.38 144.14 329.43 131.47 329.43 156.81 351.38 144.14" fill="#0d0b1e"/></g></svg>